<svg xmlns="http://www.w3.org/2000/svg" viewBox="0 0 1800 900" role="img" aria-labelledby="title desc">
  <title id="title">Amazon clone shopping hero</title>
  <desc id="desc">A warm ecommerce scene with boxes, product cards, and shopping shapes.</desc>
  <defs>
    <linearGradient id="bg" x1="0" x2="1" y1="0" y2="1">
      <stop offset="0" stop-color="#232f3e"/>
      <stop offset=".48" stop-color="#37475a"/>
      <stop offset="1" stop-color="#ff9900"/>
    </linearGradient>
  </defs>
  <rect width="1800" height="900" fill="url(#bg)"/>
  <circle cx="1470" cy="130" r="190" fill="#fff" opacity=".12"/>
  <circle cx="240" cy="720" r="250" fill="#fff" opacity=".08"/>
  <rect x="930" y="210" width="400" height="260" rx="28" fill="#f5f7fa"/>
  <rect x="980" y="265" width="170" height="44" rx="10" fill="#ff9900"/>
  <rect x="980" y="340" width="290" height="24" rx="12" fill="#9aa9b5"/>
  <rect x="980" y="386" width="230" height="24" rx="12" fill="#c8d2dc"/>
  <rect x="1040" y="536" width="360" height="220" rx="18" fill="#d88a2a"/>
  <path d="M1040 536h360l-76-82h-330z" fill="#f4b45e"/>
  <path d="M1220 536v220" stroke="#b87425" stroke-width="14"/>
  <rect x="1348" y="330" width="220" height="300" rx="20" fill="#ffffff"/>
  <rect x="1392" y="382" width="132" height="132" rx="22" fill="#46c9ff"/>
  <rect x="1392" y="548" width="132" height="22" rx="11" fill="#9aa9b5"/>
  <rect x="1392" y="590" width="90" height="22" rx="11" fill="#ff9900"/>
  <path d="M320 470c190 120 380 142 570 54" fill="none" stroke="#ff9900" stroke-width="30" stroke-linecap="round"/>
  <path d="M820 478l98 46-96 48" fill="none" stroke="#ff9900" stroke-width="30" stroke-linecap="round" stroke-linejoin="round"/>
</svg>
